<svg width="17" height="17" viewBox="0 0 17 17" fill="none" xmlns="http://www.w3.org/2000/svg">
<path d="M9.92438 15.0762L0.867051 2.13425C0.726159 1.9531 0.685904 1.7317 0.706031 1.5103C0.726159 1.2889 0.806668 1.08762 0.967687 0.926604C1.12871 0.765584 1.32998 0.685074 1.55138 0.664947C1.75266 0.64482 1.97406 0.705202 2.1552 0.825966L15.0971 9.8833C15.8821 10.4469 16.4255 11.3123 16.5866 12.2785C16.7476 13.2446 16.5262 14.2308 15.9626 15.0359C15.399 15.841 14.5537 16.3845 13.5876 16.5656C12.6215 16.7467 11.6352 16.5253 10.8301 15.9819C10.488 15.7404 10.1659 15.4385 9.92438 15.0762Z" fill="white"/>
</svg>
