<svg width="125" height="127" viewBox="0 0 125 127" fill="none" xmlns="http://www.w3.org/2000/svg">
<path d="M57.9712 3.30928C60.0544 -0.0528734 64.9456 -0.0528727 67.0288 3.30928C68.7748 6.12733 72.6431 6.68351 75.1124 4.47152C78.0584 1.83245 82.7515 3.21048 83.803 7.02333C84.6844 10.2192 88.2393 11.8426 91.2317 10.4159C94.8019 8.71372 98.9167 11.3581 98.8514 15.3128C98.7967 18.6275 101.75 21.1867 105.023 20.6608C108.929 20.0334 112.132 23.73 110.955 27.5061C109.969 30.6711 112.081 33.9587 115.37 34.3763C119.294 34.8746 121.326 39.3238 119.133 42.6154C117.295 45.3743 118.396 49.1241 121.434 50.4513C125.058 52.0348 125.754 56.8762 122.723 59.4166C120.182 61.546 120.182 65.454 122.723 67.5834C125.754 70.1238 125.058 74.9652 121.434 76.5487C118.396 77.8759 117.295 81.6257 119.133 84.3846C121.326 87.6762 119.294 92.1254 115.37 92.6236C112.081 93.0413 109.969 96.3289 110.955 99.4939C112.132 103.27 108.929 106.967 105.023 106.339C101.75 105.813 98.7967 108.373 98.8514 111.687C98.9167 115.642 94.8019 118.286 91.2317 116.584C88.2393 115.157 84.6844 116.781 83.803 119.977C82.7515 123.79 78.0584 125.168 75.1124 122.528C72.6431 120.316 68.7748 120.873 67.0288 123.691C64.9456 127.053 60.0544 127.053 57.9712 123.691C56.2252 120.873 52.3569 120.316 49.8876 122.528C46.9416 125.168 42.2485 123.79 41.197 119.977C40.3156 116.781 36.7607 115.157 33.7683 116.584C30.1981 118.286 26.0833 115.642 26.1486 111.687C26.2033 108.373 23.2498 105.813 19.9766 106.339C16.0715 106.967 12.8684 103.27 14.0452 99.4939C15.0315 96.3289 12.9186 93.0413 9.62992 92.6236C5.70622 92.1254 3.67433 87.6762 5.86727 84.3846C7.70533 81.6257 6.60431 77.8759 3.56645 76.5487C-0.0579491 74.9652 -0.754043 70.1238 2.27742 67.5834C4.81831 65.454 4.81831 61.546 2.27742 59.4167C-0.754043 56.8762 -0.0579495 52.0348 3.56645 50.4513C6.60431 49.1241 7.70533 45.3743 5.86727 42.6154C3.67433 39.3238 5.70622 34.8746 9.62992 34.3763C12.9186 33.9587 15.0315 30.6711 14.0452 27.5061C12.8684 23.73 16.0715 20.0334 19.9766 20.6608C23.2498 21.1867 26.2033 18.6275 26.1486 15.3128C26.0833 11.3581 30.1981 8.71372 33.7683 10.4159C36.7607 11.8426 40.3156 10.2192 41.197 7.02333C42.2485 3.21047 46.9416 1.83245 49.8876 4.47152C52.3569 6.68351 56.2252 6.12733 57.9712 3.30928Z" fill="white"/>
</svg>
